<svg xmlns="http://www.w3.org/2000/svg" xmlns:xlink="http://www.w3.org/1999/xlink" width="100" zoomAndPan="magnify" viewBox="0 0 75 74.999997" height="100" preserveAspectRatio="xMidYMid meet" version="1.0"><defs><clipPath id="f9c3d37bbc"><path d="M 2.4375 22.335938 L 72.9375 22.335938 L 72.9375 52.335938 L 2.4375 52.335938 Z M 2.4375 22.335938 " clip-rule="nonzero"/></clipPath></defs><g clip-path="url(#f9c3d37bbc)"><path fill="#9aa6b2" d="M 24.421875 40.492188 L 35.097656 46.667969 L 24.421875 52.601562 L 24.421875 47.960938 C 18.386719 47.085938 13.195312 45.621094 9.433594 43.765625 C 5.035156 41.597656 2.453125 38.804688 2.453125 35.640625 C 2.453125 31.667969 6.621094 28.234375 13.355469 25.902344 C 19.578125 23.746094 28.125 22.414062 37.523438 22.414062 C 46.921875 22.414062 55.46875 23.746094 61.691406 25.902344 C 68.425781 28.238281 72.59375 31.667969 72.59375 35.640625 C 72.59375 38.945312 69.773438 41.84375 65.011719 44.058594 C 60.589844 46.105469 54.363281 47.648438 47.179688 48.386719 C 46.277344 48.476562 45.46875 47.820312 45.375 46.917969 C 45.285156 46.015625 45.941406 45.210938 46.84375 45.117188 C 53.664062 44.421875 59.523438 42.980469 63.632812 41.074219 C 67.191406 39.421875 69.296875 37.535156 69.296875 35.644531 C 69.296875 33.222656 65.980469 30.859375 60.621094 29.007812 C 54.746094 26.96875 46.578125 25.710938 37.519531 25.710938 C 28.460938 25.710938 20.296875 26.96875 14.417969 29.007812 C 9.058594 30.863281 5.746094 33.222656 5.746094 35.644531 C 5.746094 37.433594 7.644531 39.230469 10.886719 40.824219 C 14.246094 42.484375 18.921875 43.8125 24.421875 44.636719 Z M 24.421875 40.492188 " fill-opacity="1" fill-rule="evenodd"/></g></svg>