<svg xmlns="http://www.w3.org/2000/svg" xmlns:xlink="http://www.w3.org/1999/xlink" width="100" zoomAndPan="magnify" viewBox="0 0 75 74.999997" height="100" preserveAspectRatio="xMidYMid meet" version="1.0"><path fill="#39b54a" d="M 37.5 0 C 16.792969 0 0 16.792969 0 37.5 C 0 58.207031 16.792969 75 37.5 75 C 58.207031 75 75 58.207031 75 37.5 C 75 16.792969 58.207031 0 37.5 0 Z M 58.605469 31.710938 L 36.664062 53.652344 C 35.605469 54.710938 34.175781 55.304688 32.679688 55.304688 C 31.207031 55.304688 29.777344 54.710938 28.71875 53.652344 L 17.757812 42.695312 C 15.558594 40.492188 15.558594 36.949219 17.757812 34.75 C 19.960938 32.570312 23.480469 32.570312 25.683594 34.75 L 32.679688 41.769531 L 50.660156 23.789062 C 52.859375 21.589844 56.402344 21.589844 58.605469 23.789062 C 60.785156 25.96875 60.785156 29.511719 58.605469 31.710938 Z M 58.605469 31.710938 " fill-opacity="1" fill-rule="nonzero"/><path fill="#ffffff" d="M 58.605469 31.710938 L 36.664062 53.652344 C 35.605469 54.710938 34.175781 55.304688 32.679688 55.304688 C 31.207031 55.304688 29.777344 54.710938 28.71875 53.652344 L 17.757812 42.695312 C 15.558594 40.492188 15.558594 36.949219 17.757812 34.75 C 19.960938 32.570312 23.480469 32.570312 25.683594 34.75 L 32.679688 41.769531 L 50.660156 23.789062 C 52.859375 21.589844 56.402344 21.589844 58.605469 23.789062 C 60.785156 25.96875 60.785156 29.511719 58.605469 31.710938 Z M 58.605469 31.710938 " fill-opacity="1" fill-rule="nonzero"/></svg>