<svg xmlns="http://www.w3.org/2000/svg" xmlns:xlink="http://www.w3.org/1999/xlink" width="100" zoomAndPan="magnify" viewBox="0 0 75 74.999997" height="100" preserveAspectRatio="xMidYMid meet" version="1.0"><defs><clipPath id="271c3d57be"><path d="M 0 7.5 L 52 7.5 L 52 58 L 0 58 Z M 0 7.5 " clip-rule="nonzero"/></clipPath><clipPath id="322f954264"><path d="M 22 17 L 75 17 L 75 67.5 L 22 67.5 Z M 22 17 " clip-rule="nonzero"/></clipPath></defs><g clip-path="url(#271c3d57be)"><path fill="#9aa6b2" d="M 15.25 37.355469 C 15.25 31.441406 17.554688 25.882812 21.734375 21.699219 C 25.917969 17.519531 31.476562 15.214844 37.390625 15.214844 C 40.425781 15.214844 43.371094 15.824219 46.082031 16.980469 L 51.824219 11.238281 C 47.457031 8.816406 42.523438 7.527344 37.390625 7.527344 C 29.421875 7.527344 21.929688 10.628906 16.296875 16.261719 C 10.664062 21.894531 7.5625 29.386719 7.5625 37.355469 L -0.00390625 37.355469 L 11.601562 57.453125 L 23.203125 37.355469 Z M 15.25 37.355469 " fill-opacity="1" fill-rule="nonzero"/></g><g clip-path="url(#322f954264)"><path fill="#9aa6b2" d="M 63.390625 17.253906 L 51.785156 37.355469 L 59.527344 37.355469 C 59.527344 43.269531 57.226562 48.828125 53.042969 53.007812 C 48.863281 57.191406 43.304688 59.492188 37.390625 59.492188 C 34.351562 59.492188 31.410156 58.882812 28.695312 57.726562 L 22.953125 63.46875 C 27.320312 65.894531 32.257812 67.183594 37.390625 67.183594 C 45.355469 67.183594 52.847656 64.078125 58.480469 58.445312 C 64.117188 52.8125 67.21875 45.320312 67.21875 37.355469 L 74.996094 37.355469 Z M 63.390625 17.253906 " fill-opacity="1" fill-rule="nonzero"/></g></svg>